<?xml version="1.0" standalone="no"?><!DOCTYPE svg PUBLIC "-//W3C//DTD SVG 1.1//EN" "http://www.w3.org/Graphics/SVG/1.1/DTD/svg11.dtd"><svg t="1541398931357" class="icon" style="" viewBox="0 0 1024 1024" version="1.1" xmlns="http://www.w3.org/2000/svg" p-id="1820" xmlns:xlink="http://www.w3.org/1999/xlink" width="128" height="128"><defs><style type="text/css"></style></defs><path d="M512 512m-512 0a512 512 0 1 0 1024 0 512 512 0 1 0-1024 0Z" fill="#5C6BC0" p-id="1821"></path><path d="M300.4416 492.9536a182.784 144.2816 0 1 0 365.568 0 182.784 144.2816 0 1 0-365.568 0Z" fill="#FFFFFF" p-id="1822"></path><path d="M663.8592 422.2976a131.8912 131.8912 0 0 1 21.0944 70.656c0 68.8128-55.5008 127.3856-133.12 149.6064a187.2896 187.2896 0 0 0 47.0016 5.9392c83.2512 0 150.7328-53.248 150.7328-118.8864 0.1024-47.4112-35.0208-88.1664-85.7088-107.3152zM330.9568 564.9408l-66.6624 76.8L378.88 605.5936l-47.9232-40.6528z" fill="#FFFFFF" p-id="1823"></path><path d="M651.264 641.024l98.4064 29.3888-45.056-60.3136-53.3504 30.9248z" fill="#FFFFFF" p-id="1824"></path></svg>