<?xml version="1.0" standalone="no"?><!DOCTYPE svg PUBLIC "-//W3C//DTD SVG 1.1//EN" "http://www.w3.org/Graphics/SVG/1.1/DTD/svg11.dtd"><svg t="1541393392321" class="icon" style="" viewBox="0 0 1024 1024" version="1.1" xmlns="http://www.w3.org/2000/svg" p-id="1546" xmlns:xlink="http://www.w3.org/1999/xlink" width="128" height="128"><defs><style type="text/css"></style></defs><path d="M512 512m-512 0a512 512 0 1 0 1024 0 512 512 0 1 0-1024 0Z" fill="#7E57C2" p-id="1547"></path><path d="M344.3712 309.3504m10.24 0l308.9408 0q10.24 0 10.24 10.24l0 384.9216q0 10.24-10.24 10.24l-308.9408 0q-10.24 0-10.24-10.24l0-384.9216q0-10.24 10.24-10.24Z" fill="#FFFFFF" p-id="1548"></path><path d="M388.9152 367.8208h141.6192V389.12H388.9152zM388.9152 461.2096h240.2304v21.2992H388.9152zM388.9152 554.2912h240.2304v21.2992H388.9152zM388.9152 640.8192h240.2304v21.2992H388.9152z" fill="#26C6DA" p-id="1549"></path><path d="M496.8448 635.5968l-51.712 16.384a10.24 10.24 0 0 1-12.4928-13.6192l19.7632-47.616a10.24 10.24 0 0 1 2.2528-3.2768L704.4096 337.92a10.24 10.24 0 0 1 14.4384 0l31.6416 30.72a10.24 10.24 0 0 1 0 14.4384L501.0432 633.0368a10.24 10.24 0 0 1-4.1984 2.56z" fill="#FFA726" p-id="1550"></path><path d="M470.38464 564.14208l53.00224 53.00224-5.35552 5.35552-53.00224-53.00224zM484.75136 549.7344l53.00224 53.00224-5.36576 5.35552-53.00224-53.00224zM498.82112 535.77728l53.00224 53.00224-5.35552 5.35552-53.00224-53.00224z" fill="#FFFFFF" p-id="1551"></path></svg>